<?xml version="1.0" standalone="no"?>
<!DOCTYPE svg PUBLIC "-//W3C//DTD SVG 20010904//EN"
 "http://www.w3.org/TR/2001/REC-SVG-20010904/DTD/svg10.dtd">
<svg version="1.0" xmlns="http://www.w3.org/2000/svg"
 width="173.000000pt" height="61.000000pt" viewBox="0 0 173.000000 61.000000"
 preserveAspectRatio="xMidYMid meet">

<g transform="translate(0.000000,61.000000) scale(0.100000,-0.100000)"
fill="#000000" stroke="none">
<path d="M400 553 c0 -36 3 -39 63 -70 144 -75 278 -206 350 -340 46 -87 48
-65 2 34 -46 100 -108 184 -193 265 -60 56 -193 148 -215 148 -4 0 -7 -17 -7
-37z" fill="#3a2d3f"/>
<path d="M70 331 c0 -10 3 -31 6 -47 l5 -29 82 3 c219 9 444 -49 602 -156 65
-44 74 -48 50 -22 -77 81 -224 170 -360 217 -82 28 -233 53 -322 53 -55 0 -63
-2 -63 -19z" fill="#f1d800"/>
<path d="M1409 334 c-167 -30 -351 -120 -461 -225 l-53 -51 50 35 c160 111
358 167 593 167 61 0 112 3 112 8 0 4 4 24 9 45 l9 37 -92 -1 c-50 0 -125 -7
-167 -15z" fill="#f1d800"/>
<path d="M115 213 c-33 -2 -70 -5 -82 -8 -21 -5 -22 -6 -6 -53 9 -26 19 -50
22 -54 4 -5 59 -1 121 8 199 28 463 10 593 -41 57 -23 57 -18 2 15 -59 35
-188 83 -277 104 -94 22 -263 35 -373 29z" fill="#c475e3"/>
<path d="M1378 210 c-147 -18 -271 -56 -397 -119 -74 -38 -76 -49 -5 -21 132
50 403 66 604 36 52 -8 98 -12 101 -8 15 16 37 102 28 108 -16 10 -261 13
-331 4z" fill="#c475e3"/>
</g>
</svg>
