<svg width="130" height="40" viewBox="0 0 130 40" fill="none" xmlns="http://www.w3.org/2000/svg">
<path fill-rule="evenodd" clip-rule="evenodd" d="M18.7405 14.8835C19.9876 14.2237 20.997 14.8299 20.997 16.2389L21 27C21 28.4089 19.9906 30.0856 18.7435 30.7453L2.25648 39.6122C1.0094 40.272 0 39.6658 0 38.2568V27.4953C0 26.0864 1.0094 24.4097 2.25648 23.75L18.7405 14.8835Z" fill="#fff"/>
<path d="M18.5564 8.63238C19.4557 9.09709 20.0838 10.1701 19.77 11.1844C19.5878 11.7753 18.9552 12.2776 18.4081 12.5661L13.5787 15.0545L1.75371 21.2958C1.08956 21.6808 0 21.5032 0 20.5094C0 20.1612 0.23371 19.8903 0.501673 19.6796L4.6773 16.2316C3.7066 15.7102 2.71818 15.014 2.26025 14.7673C1.07969 14.1292 1 13.1088 1 12.7192C1 12.3295 1 2.1057 1 2.1057C1 1.73535 0.981924 1.43741 1.09371 1.07321C1.34567 0.256831 2.20151 -0.183792 3 0.073116C3.14057 0.118313 3.253 0.189168 3.38692 0.264023L18.5564 8.63238Z" fill="#fff"/>
<path d="M109 27H104V5.37668C104 4.16638 105.113 3 106.359 3H109V27Z" fill="#fff"/>
<path d="M53 27L52.9829 17.9872C52.9829 15.2195 53.7095 12.3085 55.961 10.505C57.9893 8.90063 60.9802 8.49316 63.5 8.49316V13.4136C63.3659 13.4136 63.2253 13.4125 63.0797 13.4113C61.6698 13.3995 59.7935 13.384 58.8003 14.3848C58.1511 15.034 58 16.0498 58 17.4323V27H53Z" fill="#fff"/>
<path d="M113.631 33.5835V29.6266C113.788 29.6266 113.948 29.6292 114.11 29.6319C115.163 29.6492 116.288 29.6678 117.13 28.9675C117.66 28.5265 117.764 27.8229 117.442 26.8566L111 8H116L120.078 21.5249L123.333 10.1627C123.611 9.05278 124.301 8 125.5 8H129L121.807 29.4928C121.252 31.019 120.558 32.1042 119.731 32.7483C118.484 33.5797 116.801 33.5803 115.358 33.5809L115.343 33.5809L115.199 33.5812L115.197 33.5812C114.633 33.5824 114.155 33.5835 113.631 33.5835Z" fill="#fff"/>
<path fill-rule="evenodd" clip-rule="evenodd" d="M37.5 31.5001V24.4305C38.5903 26.3459 40.8679 27.2004 42.9732 27.2004C45.1435 27.2004 46.9225 26.3233 48.3099 24.5692C49.8148 22.6112 50.3669 20.1139 50.3852 17.684C50.4118 15.0208 49.9056 12.0594 47.9025 10.1362C46.2517 8.53185 43.9273 8.00928 41.6942 8.00928C39.2678 8.00928 36.5578 8.72791 34.8689 10.5568C33.6252 11.8263 33.0034 13.7744 33.0034 16.3932V34.0001H35.3571C36.6413 34.0001 37.5 32.785 37.5 31.5001ZM45.6143 17.7113C45.6143 19.3713 45.2724 20.6893 44.5737 21.6605C43.88 22.6317 42.9335 23.1174 41.7344 23.1174C40.4411 23.1174 39.4501 22.6317 38.7563 21.6605C38.0626 20.7835 37.7158 19.4654 37.7158 17.7113C37.7158 15.1734 38.5173 12.0971 41.5957 12.0971C44.6695 12.0971 45.6143 15.1193 45.6143 17.7113Z" fill="#fff"/>
<path fill-rule="evenodd" clip-rule="evenodd" d="M88.4966 24.4305V31.5001C88.4966 32.785 87.6379 34.0001 86.3537 34.0001H84V16.3932C84 13.7744 84.6218 11.8263 85.8655 10.5568C87.5543 8.72791 90.2644 8.00928 92.6908 8.00928C94.9239 8.00928 97.2483 8.53185 98.8991 10.1362C100.902 12.0594 101.408 15.0208 101.382 17.684C101.363 20.1139 100.811 22.6112 99.3065 24.5692C97.919 26.3233 96.1401 27.2004 93.9698 27.2004C91.8645 27.2004 89.5869 26.3459 88.4966 24.4305ZM95.5703 21.6605C96.269 20.6893 96.6109 19.3713 96.6109 17.7113C96.6109 15.1193 95.6661 12.0971 92.5923 12.0971C89.5139 12.0971 88.7124 15.1734 88.7124 17.7113C88.7124 19.4654 89.0592 20.7835 89.7529 21.6605C90.4466 22.6317 91.4377 23.1174 92.731 23.1174C93.9301 23.1174 94.8766 22.6317 95.5703 21.6605Z" fill="#fff"/>
<path fill-rule="evenodd" clip-rule="evenodd" d="M78.2303 21.1559H81.6939C81.1835 23.0984 80.2173 24.4842 78.7852 25.5C77.3532 26.5604 75.5495 27 73.3792 27C70.748 27 68.6916 26.2095 67.215 24.5C65.7383 22.8351 65 20.5811 65 17.4891C65 14.5358 65.7136 12.2218 67.1456 10.5618C68.6222 8.85229 70.6786 8 73.3098 8C76.0797 8 77.9788 8.83247 79.5 10.4924C81.5618 12.8794 81.9664 16.0027 81.9664 19H69.9155C69.9601 20.432 70.307 21.369 70.9561 22.0627C71.5557 22.801 72.4575 23.1727 73.6567 23.1727C74.3438 23.1727 75.0621 23.0447 75.6622 22.6871C75.9509 22.5151 76.1768 22.2729 76.403 22.0304C76.5749 21.8462 76.7469 21.6618 76.9469 21.5077C77.2491 21.2699 77.6753 21.1559 78.2303 21.1559ZM70.9561 12.9799C70.307 13.6291 69.9601 14.5507 69.9155 15.7499H76.9816C76.8874 14.5012 76.5653 13.5795 76.0104 12.9799C75.4108 12.3358 74.5535 12.0087 73.4485 12.0087C72.4327 12.0087 71.6003 12.3308 70.9561 12.9799Z" fill="#fff"/>
</svg>