<svg width="56" height="134" viewBox="0 0 56 134" fill="none" xmlns="http://www.w3.org/2000/svg">
<g clip-path="url(#clip0_216_1865)">
<g clip-path="url(#clip1_216_1865)">
<g clip-path="url(#clip2_216_1865)">
<mask id="mask0_216_1865" style="mask-type:alpha" maskUnits="userSpaceOnUse" x="-90" y="0" width="157" height="157">
<path d="M67 78.5C67 35.1456 31.8544 0 -11.5 0C-54.8544 0 -90 35.1456 -90 78.5C-90 121.854 -54.8544 157 -11.5 157C31.8544 157 67 121.854 67 78.5Z" fill="#C4C4C4"/>
</mask>
<g mask="url(#mask0_216_1865)">
<path d="M48 7C48 7.55228 48.4477 8 49 8C49.5523 8 50 7.55228 50 7C50 6.44772 49.5523 6 49 6C48.4477 6 48 6.44772 48 7Z" fill="white"/>
<path d="M48 79C48 79.5523 48.4477 80 49 80C49.5523 80 50 79.5523 50 79C50 78.4477 49.5523 78 49 78C48.4477 78 48 78.4477 48 79Z" fill="white"/>
<path d="M48 43C48 43.5523 48.4477 44 49 44C49.5523 44 50 43.5523 50 43C50 42.4477 49.5523 42 49 42C48.4477 42 48 42.4477 48 43Z" fill="white"/>
<path d="M48 115C48 115.552 48.4477 116 49 116C49.5523 116 50 115.552 50 115C50 114.448 49.5523 114 49 114C48.4477 114 48 114.448 48 115Z" fill="white"/>
<path d="M48 19C48 19.5523 48.4477 20 49 20C49.5523 20 50 19.5523 50 19C50 18.4477 49.5523 18 49 18C48.4477 18 48 18.4477 48 19Z" fill="white"/>
<path d="M48 91C48 91.5523 48.4477 92 49 92C49.5523 92 50 91.5523 50 91C50 90.4477 49.5523 90 49 90C48.4477 90 48 90.4477 48 91Z" fill="white"/>
<path d="M48 55C48 55.5523 48.4477 56 49 56C49.5523 56 50 55.5523 50 55C50 54.4477 49.5523 54 49 54C48.4477 54 48 54.4477 48 55Z" fill="white"/>
<path d="M48 127C48 127.552 48.4477 128 49 128C49.5523 128 50 127.552 50 127C50 126.448 49.5523 126 49 126C48.4477 126 48 126.448 48 127Z" fill="white"/>
<path d="M48 31C48 31.5523 48.4477 32 49 32C49.5523 32 50 31.5523 50 31C50 30.4477 49.5523 30 49 30C48.4477 30 48 30.4477 48 31Z" fill="white"/>
<path d="M48 103C48 103.552 48.4477 104 49 104C49.5523 104 50 103.552 50 103C50 102.448 49.5523 102 49 102C48.4477 102 48 102.448 48 103Z" fill="white"/>
<path d="M48 67C48 67.5523 48.4477 68 49 68C49.5523 68 50 67.5523 50 67C50 66.4477 49.5523 66 49 66C48.4477 66 48 66.4477 48 67Z" fill="white"/>
<path d="M32 7C32 7.55228 32.4477 8 33 8C33.5523 8 34 7.55228 34 7C34 6.44772 33.5523 6 33 6C32.4477 6 32 6.44772 32 7Z" fill="white"/>
<path d="M32 79C32 79.5523 32.4477 80 33 80C33.5523 80 34 79.5523 34 79C34 78.4477 33.5523 78 33 78C32.4477 78 32 78.4477 32 79Z" fill="white"/>
<path d="M32 43C32 43.5523 32.4477 44 33 44C33.5523 44 34 43.5523 34 43C34 42.4477 33.5523 42 33 42C32.4477 42 32 42.4477 32 43Z" fill="white"/>
<path d="M32 115C32 115.552 32.4477 116 33 116C33.5523 116 34 115.552 34 115C34 114.448 33.5523 114 33 114C32.4477 114 32 114.448 32 115Z" fill="white"/>
<path d="M32 19C32 19.5523 32.4477 20 33 20C33.5523 20 34 19.5523 34 19C34 18.4477 33.5523 18 33 18C32.4477 18 32 18.4477 32 19Z" fill="white"/>
<path d="M32 91C32 91.5523 32.4477 92 33 92C33.5523 92 34 91.5523 34 91C34 90.4477 33.5523 90 33 90C32.4477 90 32 90.4477 32 91Z" fill="white"/>
<path d="M32 55C32 55.5523 32.4477 56 33 56C33.5523 56 34 55.5523 34 55C34 54.4477 33.5523 54 33 54C32.4477 54 32 54.4477 32 55Z" fill="white"/>
<path d="M32 127C32 127.552 32.4477 128 33 128C33.5523 128 34 127.552 34 127C34 126.448 33.5523 126 33 126C32.4477 126 32 126.448 32 127Z" fill="white"/>
<path d="M32 31C32 31.5523 32.4477 32 33 32C33.5523 32 34 31.5523 34 31C34 30.4477 33.5523 30 33 30C32.4477 30 32 30.4477 32 31Z" fill="white"/>
<path d="M32 103C32 103.552 32.4477 104 33 104C33.5523 104 34 103.552 34 103C34 102.448 33.5523 102 33 102C32.4477 102 32 102.448 32 103Z" fill="white"/>
<path d="M32 67C32 67.5523 32.4477 68 33 68C33.5523 68 34 67.5523 34 67C34 66.4477 33.5523 66 33 66C32.4477 66 32 66.4477 32 67Z" fill="white"/>
<path d="M16 7C16 7.55228 16.4477 8 17 8C17.5523 8 18 7.55228 18 7C18 6.44772 17.5523 6 17 6C16.4477 6 16 6.44772 16 7Z" fill="white"/>
<path d="M16 79C16 79.5523 16.4477 80 17 80C17.5523 80 18 79.5523 18 79C18 78.4477 17.5523 78 17 78C16.4477 78 16 78.4477 16 79Z" fill="white"/>
<path d="M16 43C16 43.5523 16.4477 44 17 44C17.5523 44 18 43.5523 18 43C18 42.4477 17.5523 42 17 42C16.4477 42 16 42.4477 16 43Z" fill="white"/>
<path d="M16 115C16 115.552 16.4477 116 17 116C17.5523 116 18 115.552 18 115C18 114.448 17.5523 114 17 114C16.4477 114 16 114.448 16 115Z" fill="white"/>
<path d="M16 19C16 19.5523 16.4477 20 17 20C17.5523 20 18 19.5523 18 19C18 18.4477 17.5523 18 17 18C16.4477 18 16 18.4477 16 19Z" fill="white"/>
<path d="M16 91C16 91.5523 16.4477 92 17 92C17.5523 92 18 91.5523 18 91C18 90.4477 17.5523 90 17 90C16.4477 90 16 90.4477 16 91Z" fill="white"/>
<path d="M16 55C16 55.5523 16.4477 56 17 56C17.5523 56 18 55.5523 18 55C18 54.4477 17.5523 54 17 54C16.4477 54 16 54.4477 16 55Z" fill="white"/>
<path d="M16 127C16 127.552 16.4477 128 17 128C17.5523 128 18 127.552 18 127C18 126.448 17.5523 126 17 126C16.4477 126 16 126.448 16 127Z" fill="white"/>
<path d="M16 31C16 31.5523 16.4477 32 17 32C17.5523 32 18 31.5523 18 31C18 30.4477 17.5523 30 17 30C16.4477 30 16 30.4477 16 31Z" fill="white"/>
<path d="M16 103C16 103.552 16.4477 104 17 104C17.5523 104 18 103.552 18 103C18 102.448 17.5523 102 17 102C16.4477 102 16 102.448 16 103Z" fill="white"/>
<path d="M16 67C16 67.5523 16.4477 68 17 68C17.5523 68 18 67.5523 18 67C18 66.4477 17.5523 66 17 66C16.4477 66 16 66.4477 16 67Z" fill="white"/>
<path d="M0 7C0 7.55228 0.447715 8 1 8C1.55228 8 2 7.55228 2 7C2 6.44772 1.55228 6 1 6C0.447715 6 0 6.44772 0 7Z" fill="white"/>
<path d="M0 79C0 79.5523 0.447715 80 1 80C1.55228 80 2 79.5523 2 79C2 78.4477 1.55228 78 1 78C0.447715 78 0 78.4477 0 79Z" fill="white"/>
<path d="M0 43C0 43.5523 0.447715 44 1 44C1.55228 44 2 43.5523 2 43C2 42.4477 1.55228 42 1 42C0.447715 42 0 42.4477 0 43Z" fill="white"/>
<path d="M0 115C0 115.552 0.447715 116 1 116C1.55228 116 2 115.552 2 115C2 114.448 1.55228 114 1 114C0.447715 114 0 114.448 0 115Z" fill="white"/>
<path d="M0 19C0 19.5523 0.447715 20 1 20C1.55228 20 2 19.5523 2 19C2 18.4477 1.55228 18 1 18C0.447715 18 0 18.4477 0 19Z" fill="white"/>
<path d="M0 91C0 91.5523 0.447715 92 1 92C1.55228 92 2 91.5523 2 91C2 90.4477 1.55228 90 1 90C0.447715 90 0 90.4477 0 91Z" fill="white"/>
<path d="M0 55C0 55.5523 0.447715 56 1 56C1.55228 56 2 55.5523 2 55C2 54.4477 1.55228 54 1 54C0.447715 54 0 54.4477 0 55Z" fill="white"/>
<path d="M0 127C0 127.552 0.447715 128 1 128C1.55228 128 2 127.552 2 127C2 126.448 1.55228 126 1 126C0.447715 126 0 126.448 0 127Z" fill="white"/>
<path d="M0 31C0 31.5523 0.447715 32 1 32C1.55228 32 2 31.5523 2 31C2 30.4477 1.55228 30 1 30C0.447715 30 0 30.4477 0 31Z" fill="white"/>
<path d="M0 103C0 103.552 0.447715 104 1 104C1.55228 104 2 103.552 2 103C2 102.448 1.55228 102 1 102C0.447715 102 0 102.448 0 103Z" fill="white"/>
<path d="M0 67C0 67.5523 0.447715 68 1 68C1.55228 68 2 67.5523 2 67C2 66.4477 1.55228 66 1 66C0.447715 66 0 66.4477 0 67Z" fill="white"/>
<path d="M40 2C40 2.55228 40.4477 3 41 3C41.5523 3 42 2.55228 42 2C42 1.44772 41.5523 1 41 1C40.4477 1 40 1.44772 40 2Z" fill="white"/>
<path d="M40 74C40 74.5523 40.4477 75 41 75C41.5523 75 42 74.5523 42 74C42 73.4477 41.5523 73 41 73C40.4477 73 40 73.4477 40 74Z" fill="white"/>
<path d="M40 38C40 38.5523 40.4477 39 41 39C41.5523 39 42 38.5523 42 38C42 37.4477 41.5523 37 41 37C40.4477 37 40 37.4477 40 38Z" fill="white"/>
<path d="M40 110C40 110.552 40.4477 111 41 111C41.5523 111 42 110.552 42 110C42 109.448 41.5523 109 41 109C40.4477 109 40 109.448 40 110Z" fill="white"/>
<path d="M40 14C40 14.5523 40.4477 15 41 15C41.5523 15 42 14.5523 42 14C42 13.4477 41.5523 13 41 13C40.4477 13 40 13.4477 40 14Z" fill="white"/>
<path d="M40 86C40 86.5523 40.4477 87 41 87C41.5523 87 42 86.5523 42 86C42 85.4477 41.5523 85 41 85C40.4477 85 40 85.4477 40 86Z" fill="white"/>
<path d="M40 50C40 50.5523 40.4477 51 41 51C41.5523 51 42 50.5523 42 50C42 49.4477 41.5523 49 41 49C40.4477 49 40 49.4477 40 50Z" fill="white"/>
<path d="M40 122C40 122.552 40.4477 123 41 123C41.5523 123 42 122.552 42 122C42 121.448 41.5523 121 41 121C40.4477 121 40 121.448 40 122Z" fill="white"/>
<path d="M40 26C40 26.5523 40.4477 27 41 27C41.5523 27 42 26.5523 42 26C42 25.4477 41.5523 25 41 25C40.4477 25 40 25.4477 40 26Z" fill="white"/>
<path d="M40 98C40 98.5523 40.4477 99 41 99C41.5523 99 42 98.5523 42 98C42 97.4477 41.5523 97 41 97C40.4477 97 40 97.4477 40 98Z" fill="white"/>
<path d="M40 62C40 62.5523 40.4477 63 41 63C41.5523 63 42 62.5523 42 62C42 61.4477 41.5523 61 41 61C40.4477 61 40 61.4477 40 62Z" fill="white"/>
<path d="M40 134C40 134.552 40.4477 135 41 135C41.5523 135 42 134.552 42 134C42 133.448 41.5523 133 41 133C40.4477 133 40 133.448 40 134Z" fill="white"/>
<path d="M24 2C24 2.55228 24.4477 3 25 3C25.5523 3 26 2.55228 26 2C26 1.44772 25.5523 1 25 1C24.4477 1 24 1.44772 24 2Z" fill="white"/>
<path d="M24 74C24 74.5523 24.4477 75 25 75C25.5523 75 26 74.5523 26 74C26 73.4477 25.5523 73 25 73C24.4477 73 24 73.4477 24 74Z" fill="white"/>
<path d="M24 38C24 38.5523 24.4477 39 25 39C25.5523 39 26 38.5523 26 38C26 37.4477 25.5523 37 25 37C24.4477 37 24 37.4477 24 38Z" fill="white"/>
<path d="M24 110C24 110.552 24.4477 111 25 111C25.5523 111 26 110.552 26 110C26 109.448 25.5523 109 25 109C24.4477 109 24 109.448 24 110Z" fill="white"/>
<path d="M24 14C24 14.5523 24.4477 15 25 15C25.5523 15 26 14.5523 26 14C26 13.4477 25.5523 13 25 13C24.4477 13 24 13.4477 24 14Z" fill="white"/>
<path d="M24 86C24 86.5523 24.4477 87 25 87C25.5523 87 26 86.5523 26 86C26 85.4477 25.5523 85 25 85C24.4477 85 24 85.4477 24 86Z" fill="white"/>
<path d="M24 50C24 50.5523 24.4477 51 25 51C25.5523 51 26 50.5523 26 50C26 49.4477 25.5523 49 25 49C24.4477 49 24 49.4477 24 50Z" fill="white"/>
<path d="M24 122C24 122.552 24.4477 123 25 123C25.5523 123 26 122.552 26 122C26 121.448 25.5523 121 25 121C24.4477 121 24 121.448 24 122Z" fill="white"/>
<path d="M24 26C24 26.5523 24.4477 27 25 27C25.5523 27 26 26.5523 26 26C26 25.4477 25.5523 25 25 25C24.4477 25 24 25.4477 24 26Z" fill="white"/>
<path d="M24 98C24 98.5523 24.4477 99 25 99C25.5523 99 26 98.5523 26 98C26 97.4477 25.5523 97 25 97C24.4477 97 24 97.4477 24 98Z" fill="white"/>
<path d="M24 62C24 62.5523 24.4477 63 25 63C25.5523 63 26 62.5523 26 62C26 61.4477 25.5523 61 25 61C24.4477 61 24 61.4477 24 62Z" fill="white"/>
<path d="M24 134C24 134.552 24.4477 135 25 135C25.5523 135 26 134.552 26 134C26 133.448 25.5523 133 25 133C24.4477 133 24 133.448 24 134Z" fill="white"/>
<path d="M8 2C8 2.55228 8.44772 3 9 3C9.55228 3 10 2.55228 10 2C10 1.44772 9.55228 1 9 1C8.44772 1 8 1.44772 8 2Z" fill="white"/>
<path d="M8 74C8 74.5523 8.44772 75 9 75C9.55228 75 10 74.5523 10 74C10 73.4477 9.55228 73 9 73C8.44772 73 8 73.4477 8 74Z" fill="white"/>
<path d="M8 38C8 38.5523 8.44772 39 9 39C9.55228 39 10 38.5523 10 38C10 37.4477 9.55228 37 9 37C8.44772 37 8 37.4477 8 38Z" fill="white"/>
<path d="M8 110C8 110.552 8.44772 111 9 111C9.55228 111 10 110.552 10 110C10 109.448 9.55228 109 9 109C8.44772 109 8 109.448 8 110Z" fill="white"/>
<path d="M8 14C8 14.5523 8.44772 15 9 15C9.55228 15 10 14.5523 10 14C10 13.4477 9.55228 13 9 13C8.44772 13 8 13.4477 8 14Z" fill="white"/>
<path d="M8 86C8 86.5523 8.44772 87 9 87C9.55228 87 10 86.5523 10 86C10 85.4477 9.55228 85 9 85C8.44772 85 8 85.4477 8 86Z" fill="white"/>
<path d="M8 50C8 50.5523 8.44772 51 9 51C9.55228 51 10 50.5523 10 50C10 49.4477 9.55228 49 9 49C8.44772 49 8 49.4477 8 50Z" fill="white"/>
<path d="M8 122C8 122.552 8.44772 123 9 123C9.55228 123 10 122.552 10 122C10 121.448 9.55228 121 9 121C8.44772 121 8 121.448 8 122Z" fill="white"/>
<path d="M8 26C8 26.5523 8.44772 27 9 27C9.55228 27 10 26.5523 10 26C10 25.4477 9.55228 25 9 25C8.44772 25 8 25.4477 8 26Z" fill="white"/>
<path d="M8 98C8 98.5523 8.44772 99 9 99C9.55228 99 10 98.5523 10 98C10 97.4477 9.55228 97 9 97C8.44772 97 8 97.4477 8 98Z" fill="white"/>
<path d="M8 62C8 62.5523 8.44772 63 9 63C9.55228 63 10 62.5523 10 62C10 61.4477 9.55228 61 9 61C8.44772 61 8 61.4477 8 62Z" fill="white"/>
<path d="M8 134C8 134.552 8.44772 135 9 135C9.55228 135 10 134.552 10 134C10 133.448 9.55228 133 9 133C8.44772 133 8 133.448 8 134Z" fill="white"/>
</g>
</g>
</g>
</g>
<defs>
<clipPath id="clip0_216_1865">
<rect width="67" height="134" fill="white" transform="translate(-11)"/>
</clipPath>
<clipPath id="clip1_216_1865">
<rect width="78" height="157" fill="white" transform="translate(-11)"/>
</clipPath>
<clipPath id="clip2_216_1865">
<rect width="78" height="157" fill="white" transform="translate(-11)"/>
</clipPath>
</defs>
</svg>
