<?xml version="1.0" encoding="UTF-8"?> <svg xmlns="http://www.w3.org/2000/svg" id="Layer_1" data-name="Layer 1" viewBox="0 0 1008.23 238.22"> <defs> <style>.cls-1{fill:#fff;}</style> </defs> <title>good reader logo dark turquoise</title> <path class="cls-1" d="M114.74,327.92c3.88-13.72,16.16-25.65,30.89-26,33.39-.13,66.78,0,100.16-.06,15.2.32,28.39,10.8,35.79,23.53q41,0,82.07,0a36.33,36.33,0,0,1,20.94,6.43,37.3,37.3,0,0,1,16.27,30.83q0,70.51,0,141c-.13,14.41-9.7,28.06-23,33.43-6.95,3.1-14.69,3-22.14,2.9q-114,0-227.94,0c-19-.22-36.23-17.08-36.09-36.27q0-71,0-142.08C91.56,347,101.47,333.54,114.74,327.92Zm118.14,35.92c-40.82,3.82-79.5,26.83-101.66,61.41a13.65,13.65,0,0,0-2.06,8.37c.17,4.59,3.28,8.26,5.77,11.86a137.63,137.63,0,0,0,225.89-4.91,14,14,0,0,0,1.64-12.66c-1.45-3.62-4-6.66-6.23-9.8A137.22,137.22,0,0,0,275,366.28,135.35,135.35,0,0,0,232.88,363.84Z" transform="translate(-91.62 -301.84)"></path> <path class="cls-1" d="M443.84,401.76c5.28-9.42,14.89-16.59,25.73-17.87,8.42-1.31,17.55.05,24.51,5.21,5.34,3.78,9,9.33,11.95,15.09-4.92,2.59-10,4.73-15,7.22-2.61-6.06-8.14-11.9-15.22-11.59-7.55-.59-13.9,5.29-16.56,11.92-4.39,10.95-4.45,23.37-1.22,34.65,1.84,5.52,5.08,11,10.51,13.64,6.84,3.18,15.35,1.29,20.81-3.73,0-4.64,0-9.27,0-13.9h-17V426.06h34.32q0,18.75,0,37.51a40.18,40.18,0,0,1-28.93,14.37,36.29,36.29,0,0,1-27.39-10c-7.25-7.09-11.1-17-12.66-26.82C436.07,427.83,437.06,413.62,443.84,401.76Z" transform="translate(-91.62 -301.84)"></path> <path class="cls-1" d="M693.29,384.76h16.29q0,45.74,0,91.48h-16.3c0-2.74,0-5.48,0-8.22-3.34,5-8.51,9-14.59,9.84a21.78,21.78,0,0,1-20.81-10.43c-6-9.73-6.38-21.69-5.33-32.77,1.14-7.09,3.45-14.36,8.53-19.66,5.54-5.94,14.85-8.38,22.43-5.16,4.15,1.55,7.27,4.89,9.75,8.46ZM677.12,424c-6.56,3.61-7.74,11.85-8.07,18.62.15,6.94,1.09,15.3,7.49,19.4,6.12,3.54,14.17-.58,16.68-6.68.12-8.14.15-16.3,0-24.44C690.62,425.08,683.22,421.07,677.12,424Z" transform="translate(-91.62 -301.84)"></path> <path class="cls-1" d="M725,384.77q16.38,0,32.75,0c7.15,0,14.66,1.88,20,6.82,8.77,7.85,11.11,21.14,7.82,32.12-1.84,7.35-7.29,13.87-14.55,16.31,5.55,12.05,11,24.14,16.54,36.2-6.8.08-13.61,0-20.41,0-4.59-11-9.38-22-13.86-33h-9.78v33H725Zm18.54,16.31v26.05c5.38-.19,10.83.45,16.16-.41,10.48-2.74,11.41-19.63,2.2-24.44C756.06,400.11,749.67,401.42,743.57,401.08Z" transform="translate(-91.62 -301.84)"></path> <path class="cls-1" d="M968.56,384.8c5.43-.06,10.86,0,16.3,0v91.47c-5.44,0-10.87,0-16.3,0,0-2.73,0-5.45.06-8.18-3.41,5.07-8.7,9.13-14.89,9.85a21.65,21.65,0,0,1-20.25-10.07c-5.89-9.08-6.51-20.36-5.79-30.85.69-7.65,3-15.48,8.14-21.36,5.41-6.24,14.82-9,22.61-5.93,4.32,1.5,7.58,4.91,10.13,8.58C968.55,407.11,968.57,396,968.56,384.8Zm-23.27,49.92c-1.39,7.61-1.54,16.1,2.37,23,2.27,4.2,7.46,6.68,12.1,5.19,3.86-.93,6.71-4,8.83-7.17-.05-8.4,0-16.8,0-25.2-2.73-4.3-7.36-8.19-12.79-7.44C949.89,423.54,946.35,429.45,945.29,434.72Z" transform="translate(-91.62 -301.84)"></path> <path class="cls-1" d="M240.84,385.72A47.77,47.77,0,0,1,278,397.35a47.16,47.16,0,0,1,4.94,65.5,48,48,0,0,1-75.66-2.78,47,47,0,0,1-8.17-35.37C202.21,404.32,220.33,387.51,240.84,385.72Zm-1.75,28.43c-7.49,2.75-13.05,10.38-12.79,18.46-.34,9.2,6.92,17.67,15.86,19.37,11,2.67,23.14-6.05,23.87-17.39A19.53,19.53,0,0,0,258.36,417,20.41,20.41,0,0,0,239.09,414.15Z" transform="translate(-91.62 -301.84)"></path> <path class="cls-1" d="M538.29,409.55c9.78-2.79,21.27-.49,28.46,6.93,5.09,5,7.79,11.86,9.15,18.75,1.63,11.34,0,23.9-7.58,32.94-9.26,11.42-27.74,13-39.22,4.09-6.19-4.75-9.93-12.12-11.45-19.66-1.88-9.54-1.07-19.81,3.33-28.57C524.46,417.14,530.72,411.46,538.29,409.55ZM542,423.94c-6.6,3.62-7.88,11.9-8.32,18.71.21,5.91,1,12.4,5,17.09,4.1,5.12,12.94,4.67,16.66-.69,4.23-5.8,4.54-13.44,4-20.34-.5-5.9-2.85-12.72-8.79-15.11A12.75,12.75,0,0,0,542,423.94Z" transform="translate(-91.62 -301.84)"></path> <path class="cls-1" d="M607.19,409.26a29.69,29.69,0,0,1,23.69,4.17c7.59,5.25,11.66,14.3,12.87,23.24,1.5,11-.66,23.2-8,31.87-9.94,11.79-29.83,12.63-40.92,2-6.35-5.93-9.34-14.57-10.31-23-.79-9.07.91-18.58,5.82-26.34A26.72,26.72,0,0,1,607.19,409.26Zm2.72,14.58c-6.43,3.25-8.16,11.18-8.4,17.78-.18,6.33.67,13.28,4.89,18.29,4.08,4.81,12.46,4.47,16.28-.5,3.62-4.74,4.65-11,4.49-16.79,0-5.7-1.14-11.87-5-16.24C619.17,423,614,422.24,609.91,423.84Z" transform="translate(-91.62 -301.84)"></path> <path class="cls-1" d="M803.68,415.59c10.47-9.94,29.26-9.66,38.76,1.5,7.5,8.54,8.87,20.51,8.56,31.43H809.45c.6,5.29,2.64,10.89,7.43,13.76,7.34,4.55,17.21,1.88,23-4q3.83,4.86,7.55,9.82c-10.44,11-29,13.31-41.5,4.41-9-6.53-13.14-18.07-13-28.91C792.7,433.39,796.07,422.65,803.68,415.59Zm10.44,9.4c-3.29,3.17-4.13,7.86-4.73,12.18q12.86,0,25.72,0c-.54-3.5-.81-7.21-2.94-10.17C828.56,420.88,819,419.88,814.12,425Z" transform="translate(-91.62 -301.84)"></path> <path class="cls-1" d="M865.49,417.34c5.17-7.37,15.47-11,24-7.68,4.32,1.5,7.69,4.91,10,8.77,0-2.8,0-5.6,0-8.39,5.52,0,11,0,16.57,0v66.18c-5.47,0-10.94,0-16.41,0,0-2.79,0-5.57,0-8.36-3.26,5.29-8.73,9.35-15,10a21.58,21.58,0,0,1-18.88-8.36c-5.68-7.36-7.19-16.93-7.3-26C858.52,434.45,860,424.86,865.49,417.34ZM884,423.89c-6.27,3-8,10.47-8.57,16.76-.3,7.25.61,15.81,6.56,20.77,6,4.46,14.93.47,17.58-6,.26-6.59,0-13.2.11-19.79C901.24,427.5,891.23,420.89,884,423.89Z" transform="translate(-91.62 -301.84)"></path> <path class="cls-1" d="M1007.34,415.28c10.47-9.5,28.63-9.25,38.17,1.47,7.72,8.54,9.19,20.7,8.9,31.76h-41.55c.47,4.32,1.77,8.76,5,11.87,5.11,5.17,13.64,5.21,19.78,1.95,2.15-.91,3.68-2.95,5.9-3.67,2.58,3,4.84,6.31,7.28,9.45-10.52,11-29.25,13.32-41.68,4.24-8.67-6.31-12.62-17.33-12.83-27.74C995.91,434,999.25,422.58,1007.34,415.28Zm9.94,9.88c-3.07,3.23-4,7.73-4.49,12q12.91,0,25.84,0c-.77-3.78-1.16-7.85-3.65-11C1031,420.67,1021.91,420.16,1017.28,425.16Z" transform="translate(-91.62 -301.84)"></path> <path class="cls-1" d="M1081.82,418.7a25.35,25.35,0,0,1,17.6-10.54c.62,5.41-.26,10.87.43,16.29a18.48,18.48,0,0,0-17.12,6.19c-1.19,1-.87,2.63-.93,4,0,13.86,0,27.72,0,41.59-5.55,0-11.09,0-16.63,0q0-33.11,0-66.2c5.53,0,11.08,0,16.62,0C1081.81,412.94,1081.83,415.82,1081.82,418.7Z" transform="translate(-91.62 -301.84)"></path> </svg> 